<?xml version="1.0" encoding="UTF-8"?>
<svg id="Layer_2" data-name="Layer 2" xmlns="http://www.w3.org/2000/svg" viewBox="0 0 176.74 62.52">
  <defs>
    <style>
      .cls-1 {
        fill: #fbb615;
      }
    </style>
  </defs>
  <g id="Layer_1-2" data-name="Layer 1">
    <path class="cls-1" d="m52.82,14.87l-3.78-2.18-1.32-.76-1.32.76L12.85,32.05v-9l4.95-2.86,10.59-6.12,7.56-4.37,3.97-2.29-3.97-2.29L28.4.76l-1.32-.76-1.32.76L1.32,14.87l-1.32.76v31.26l1.32.76,3.78,2.18,1.32.76,1.32-.76,33.54-19.36v9l-7.6,4.39-7.94,4.58-7.56,4.37-3.97,2.29,3.97,2.29,7.56,4.37,1.32.76,1.32-.76,24.43-14.1,1.32-.76V15.63l-1.32-.76ZM27.07,3.06l7.56,4.37-24.43,14.1-7.56-4.37L27.07,3.06Zm0,56.41l-7.56-4.37,24.43-14.1,7.56,4.37-24.43,14.1Zm-20.65-11.92l-3.78-2.18v-4.37L47.72,14.98l3.78,2.18v4.37S6.43,47.55,6.43,47.55Z"/>
    <g>
      <path class="cls-1" d="m142.62,22.13s.05-.03.08-.04c.32-.18.61-.41.86-.68.02-.02.04-.04.06-.07.06-.07.12-.14.18-.21.03-.03.05-.07.08-.1.03-.04.06-.08.08-.12.03-.04.05-.08.08-.13.05-.09.11-.18.15-.27.01-.03.03-.05.04-.08.05-.11.1-.23.14-.34.01-.03.02-.06.03-.09.13-.38.2-.79.2-1.22h0c0-.49-.09-.96-.26-1.4-.01-.03-.02-.06-.04-.09-.07-.17-.16-.34-.25-.49-.08-.13-.17-.26-.26-.38-.04-.05-.08-.1-.12-.14-.18-.21-.38-.4-.6-.56-.05-.04-.1-.07-.15-.11-.03-.02-.05-.03-.08-.05-.1-.07-.21-.13-.32-.18-.05-.03-.11-.05-.17-.08-.06-.03-.11-.05-.17-.07-.03-.01-.06-.02-.09-.03-.41-.15-.85-.23-1.31-.23h-10.72v2.57h10.84c.7,0,1.27.56,1.28,1.26,0,.3-.1.58-.27.8-.23.3-.6.5-1.02.5h-10.84v7.7h2.41v-5.21h4.22l4.86,5.21h3.04l-4.86-5.21h1.05c.66,0,1.28-.17,1.82-.46Z"/>
      <path class="cls-1" d="m84.72,18.82h0c0-.71.57-1.28,1.28-1.28h10.2v-2.57h-10.2c-2.13,0-3.85,1.72-3.85,3.85h0c0,2.13,1.72,3.85,3.85,3.85h6.35c.71,0,1.28.57,1.28,1.28h0c0,.71-.57,1.28-1.28,1.28h-10.2v2.57h10.2c2.13,0,3.85-1.72,3.85-3.85h0c0-2.13-1.72-3.85-3.85-3.85h-6.35c-.71,0-1.28-.57-1.28-1.28Z"/>
      <path class="cls-1" d="m108.7,14.98h-10.72v2.57h10.84c.71,0,1.28.57,1.28,1.28h0c0,.71-.57,1.28-1.28,1.28h-10.84v7.7h2.41v-5.21h8.31c2.1,0,3.81-1.71,3.81-3.81h0c0-2.1-1.71-3.81-3.81-3.81Z"/>
      <path class="cls-1" d="m124.31,14.98h-6.02c-2.21,0-4,1.79-4,4v4.82c0,2.21,1.79,4,4,4h6.02c2.21,0,4-1.79,4-4v-4.82c0-2.21-1.79-4-4-4Zm1.44,5.79v3.07c0,.76-.62,1.38-1.38,1.38h-5.86c-.91,0-1.66-.74-1.66-1.66v-4.36c0-.91.74-1.66,1.66-1.66h5.86c.76,0,1.38.62,1.38,1.38v1.85Z"/>
      <polygon class="cls-1" points="146.39 14.98 146.39 17.54 152.45 17.54 152.45 27.8 154.86 27.8 154.86 17.54 160.92 17.54 160.92 14.98 146.39 14.98"/>
      <path class="cls-1" d="m165.26,18.82h0c0-.71.57-1.28,1.28-1.28h10.2v-2.57h-10.2c-2.13,0-3.85,1.72-3.85,3.85h0c0,2.13,1.72,3.85,3.85,3.85h6.35c.71,0,1.28.57,1.28,1.28h0c0,.71-.57,1.28-1.28,1.28h-10.2v2.57h10.2c2.13,0,3.85-1.72,3.85-3.85h0c0-2.13-1.72-3.85-3.85-3.85h-6.35c-.71,0-1.28-.57-1.28-1.28Z"/>
      <path class="cls-1" d="m70.53,17.54h9.84v-2.57h-10.02c-2.21,0-4,1.79-4,4v4.82c0,2.21,1.79,4,4,4h10.02v-2.57h-9.84c-.89,0-1.62-.72-1.62-1.62v-.95h8.2v-2.57h-8.2v-.95c0-.89.72-1.62,1.62-1.62Z"/>
    </g>
    <g>
      <path class="cls-1" d="m82.18,31.91c-2.21,0-4,1.79-4,4v2.41h0v6.41h2.57v-5.13h8.9v5.13h2.57v-6.41h0v-2.41c0-2.21-1.79-4-4-4h-6.02Zm-1.44,5.13v-.91c0-.91.74-1.66,1.66-1.66h5.86c.76,0,1.38.62,1.38,1.38v1.19h-8.9Z"/>
      <path class="cls-1" d="m68.87,40.85v-8.93h-2.52v10.07c0,1.52,1.24,2.76,2.76,2.76h6.87v-2.52h-5.74c-.76,0-1.38-.62-1.38-1.38Z"/>
      <path class="cls-1" d="m108.3,38.33c.31-.33.55-.71.73-1.12.2-.47.3-.97.3-1.48s-.1-1.01-.3-1.48c-.19-.45-.47-.86-.82-1.21-.35-.35-.76-.62-1.21-.82-.47-.2-.97-.3-1.48-.3h-10.72v2.41h10.72c.77,0,1.4.63,1.4,1.4h0c0,.77-.63,1.4-1.4,1.4h-10.72v2.41h10.72c.77,0,1.4.63,1.4,1.4h0c0,.77-.63,1.4-1.4,1.4h-10.72v2.41h10.72c.51,0,1.01-.1,1.48-.3.45-.19.86-.47,1.21-.82.35-.35.62-.76.82-1.21.2-.47.3-.97.3-1.48s-.1-1.01-.3-1.48c-.18-.42-.42-.79-.73-1.12Z"/>
    </g>
  </g>
</svg>